<svg xmlns="http://www.w3.org/2000/svg" xmlns:xlink="http://www.w3.org/1999/xlink" width="500" zoomAndPan="magnify" viewBox="0 0 375 374.999991" height="500" preserveAspectRatio="xMidYMid meet" version="1.0"><defs><clipPath id="0110b550c9"><path d="M 100.839844 74.015625 L 274 74.015625 L 274 301.265625 L 100.839844 301.265625 Z M 100.839844 74.015625 " clip-rule="nonzero"/></clipPath></defs><rect x="-37.5" width="450" fill="#ffffff" y="-37.499999" height="449.999989" fill-opacity="1"/><rect x="-37.5" width="450" fill="#000000" y="-37.499999" height="449.999989" fill-opacity="1"/><g clip-path="url(#0110b550c9)"><path fill="#fbb03b" d="M 184.265625 145.851562 L 170.460938 159.679688 L 249.492188 238.839844 L 187.054688 301.265625 L 119.839844 233.941406 L 130.539062 223.226562 L 187.054688 279.832031 L 227.832031 238.988281 L 215.171875 226.308594 L 190.816406 250.707031 L 190.65625 250.542969 L 190.503906 250.691406 L 100.945312 160.976562 L 111.640625 150.261719 L 190.671875 229.421875 L 204.480469 215.59375 L 125.445312 136.4375 L 187.886719 74.015625 L 255.097656 141.335938 L 244.402344 152.054688 L 187.886719 95.441406 L 147.109375 136.285156 L 159.769531 148.964844 L 184.125 124.570312 L 184.285156 124.730469 L 184.433594 124.582031 L 274 214.296875 L 263.300781 225.011719 Z M 184.265625 145.851562 " fill-opacity="1" fill-rule="nonzero"/></g></svg>